<?xml version="1.0" encoding="UTF-8" standalone="no"?>
<!-- Created with Inkscape (http://www.inkscape.org/) -->

<svg
   width="512"
   height="512"
   viewBox="0 0 135.46667 135.46667"
   version="1.1"
   id="svg5"
   xml:space="preserve"
   inkscape:version="1.2.1 (9c6d41e4, 2022-07-14)"
   sodipodi:docname="icon.svg"
   inkscape:export-filename="icon-80.png"
   inkscape:export-xdpi="15"
   inkscape:export-ydpi="15"
   xmlns:inkscape="http://www.inkscape.org/namespaces/inkscape"
   xmlns:sodipodi="http://sodipodi.sourceforge.net/DTD/sodipodi-0.dtd"
   xmlns="http://www.w3.org/2000/svg"
   xmlns:svg="http://www.w3.org/2000/svg"><sodipodi:namedview
     id="namedview7"
     pagecolor="#a0a0a0"
     bordercolor="#000000"
     borderopacity="0.25"
     inkscape:showpageshadow="2"
     inkscape:pageopacity="1"
     inkscape:pagecheckerboard="0"
     inkscape:deskcolor="#d1d1d1"
     inkscape:document-units="mm"
     showgrid="false"
     inkscape:zoom="0.75466303"
     inkscape:cx="186.83836"
     inkscape:cy="313.3849"
     inkscape:window-width="1280"
     inkscape:window-height="747"
     inkscape:window-x="0"
     inkscape:window-y="25"
     inkscape:window-maximized="1"
     inkscape:current-layer="svg5" /><defs
     id="defs2" /><g
     inkscape:groupmode="layer"
     id="layer2"
     inkscape:label="Calque 2"
     style="display:inline"><g
       id="g6231"
       transform="matrix(0.93023255,0,0,0.93023255,5.3932325,4.5614252)"><path
         style="fill:#e50000;fill-opacity:1;stroke:none;stroke-width:0.246207"
         d="m 41.343768,93.333618 -2.21726,-59.582686 c 0,0 -0.852793,-12.450768 9.721833,-18.761431 10.574627,-6.3106632 32.576669,-4.775637 39.057889,2.387818 6.481221,7.163456 7.163457,12.109651 6.992899,14.838588 -0.170558,2.728934 -3.070053,62.083282 -3.070053,62.083282 0,0 -6.488377,11.739041 -25.818503,11.669471 C 46.680448,105.8991 41.343768,93.333618 41.343768,93.333618 Z"
         id="path1069"
         sodipodi:nodetypes="ccsssczc" /><ellipse
         style="fill:#f2f2f2;fill-opacity:1;stroke:none;stroke-width:0.281363"
         id="path232"
         cx="66.88913"
         cy="21.952503"
         rx="22.791794"
         ry="10.831234" /><path
         style="fill:#999999;fill-opacity:1;stroke:none;stroke-width:0.246207"
         d="m 41.343768,93.333618 0.183796,3.693868 c 0,0 5.641631,11.727314 24.78013,11.728064 19.1385,7.3e-4 25.259447,-11.118721 25.259447,-11.118721 l 0.261939,-3.33764 c 0,0 -6.488377,11.739041 -25.818503,11.669471 C 46.680448,105.8991 41.343768,93.333618 41.343768,93.333618 Z"
         id="path1221"
         sodipodi:nodetypes="cczcczc" /><path
         style="fill:#f9f9f9;fill-opacity:1;stroke:none;stroke-width:0.246207"
         d="m 41.985043,103.8053 c -0.0036,-2.2644 -0.457479,-6.777814 -0.457479,-6.777814 0,0 5.641631,11.727314 24.78013,11.728064 19.1385,7.3e-4 25.259447,-11.118721 25.259447,-11.118721 0,0 -0.133808,4.319701 -0.239032,6.477911 -0.257315,5.27767 -0.788702,20.39336 -24.181064,20.67704 -23.392361,0.28368 -25.155738,-17.06554 -25.162002,-20.98648 z"
         id="path2709"
         sodipodi:nodetypes="sczcszs" /><rect
         style="fill:#e50000;fill-opacity:1;stroke:none;stroke-width:0.820502;stroke-dasharray:none;stroke-opacity:1"
         id="rect4577"
         width="4.4659691"
         height="12.217249"
         x="60.831982"
         y="109.73193" /><path
         style="fill:none;fill-opacity:0.506726;stroke:#aeaeae;stroke-width:0.812979;stroke-dasharray:none;stroke-opacity:1"
         d="m 60.687831,110.5436 c 0,0 -0.296812,-4.11283 2.395884,-4.08643 2.606624,0.0256 2.31327,4.06194 2.31327,4.06194"
         id="path2795"
         sodipodi:nodetypes="csc" /></g></g></svg>
